<svg id="Capa_1" data-name="Capa 1" xmlns="http://www.w3.org/2000/svg" xmlns:xlink="http://www.w3.org/1999/xlink" viewBox="0 0 250 138.42"><defs><style>.cls-1{font-size:90px;fill:#222221;font-family:Broadway;}.cls-2{letter-spacing:-0.04em;}.cls-3{font-size:60px;font-family:FuturaPT-Light, Futura PT;font-weight:300;}.cls-4{fill:url(#Degradado_sin_nombre_74);}.cls-5{fill:none;stroke-miterlimit:10;stroke-width:0.25px;stroke:url(#Degradado_sin_nombre_78);}</style><linearGradient id="Degradado_sin_nombre_74" x1="86.85" y1="-31.41" x2="173.48" y2="118.64" gradientTransform="translate(0 0)" gradientUnits="userSpaceOnUse"><stop offset="0" stop-color="#e5e5e5"/><stop offset="0" stop-color="#e5e4e2"/><stop offset="0.02" stop-color="#e6e1cc"/><stop offset="0.05" stop-color="#e7debb"/><stop offset="0.08" stop-color="#e8dcb0"/><stop offset="0.12" stop-color="#e8daa9"/><stop offset="0.24" stop-color="#e8daa7"/><stop offset="0.3" stop-color="#dac994"/><stop offset="0.43" stop-color="#b49d64"/><stop offset="0.54" stop-color="#917336"/><stop offset="0.62" stop-color="#9b7f40"/><stop offset="0.76" stop-color="#b69d5b"/><stop offset="0.95" stop-color="#e2cf86"/><stop offset="1" stop-color="#f0df94"/></linearGradient><linearGradient id="Degradado_sin_nombre_78" x1="0.45" y1="56.9" x2="243.03" y2="56.9" gradientTransform="translate(0 0)" gradientUnits="userSpaceOnUse"><stop offset="0" stop-color="#917336"/><stop offset="1" stop-color="#e8daa7"/></linearGradient></defs><title>logo</title><g id="JAZZ_feel" data-name="JAZZ &amp; feel"><text class="cls-1" transform="translate(2.54 75.42)"><tspan class="cls-2">J</tspan><tspan x="53.61" y="0">AZZ</tspan><tspan class="cls-3"><tspan x="55.71" y="48">&amp; feel</tspan></tspan></text><path class="cls-4" d="M51.69,4.32l-.13,10.42.22,16,.13,10.64q0,10.93-6.24,17.36a22,22,0,0,1-9.05,5.58,41.24,41.24,0,0,1-13,1.8q-11.08,0-17.06-4.44a17.08,17.08,0,0,1-4.39-4.9A10.63,10.63,0,0,1,.45,51.39,1.65,1.65,0,0,1,2.3,49.5c1.17,0,1.89.89,2.15,2.68q.8,5.63,7,8.7a24.11,24.11,0,0,0,10.77,2.46c.56,0,1.46,0,2.72-.13l.05-1.8.09-12,.17-32L25,4.32Z" transform="translate(2.97 11.11)"/><path class="cls-4" d="M89.46.72,124.6,64.31H94.12l-4.24-8H75.16l-13-.05-2.19,0-2.89,5.37a20.67,20.67,0,0,1-1.78,3,1.6,1.6,0,0,1-1.26.58c-1,0-1.51-.44-1.51-1.32a5.86,5.86,0,0,1,.86-2.13q.85-1.56,6-10.26L86,6.65ZM75.79,29.59,68.11,42.51,62,53.15l13.11.17,13.15-.17Z" transform="translate(2.97 11.11)"/><path class="cls-4" d="M182.52,4.32l-1,1.89Q166,37.5,155.61,61.36h10l10.51-.15L179,61.1c1.73,0,2.59.53,2.59,1.6,0,.78-.2,1.23-.61,1.36a23.34,23.34,0,0,1-4.26.25H125.56l.84-1.72q19.2-38.54,26.28-55.45l-19.91.43-2,0c-1.64,0-2.46-.54-2.46-1.63a1.42,1.42,0,0,1,1.06-1.49,14.73,14.73,0,0,1,3-.18Z" transform="translate(2.97 11.11)"/><path class="cls-4" d="M243,4.32l-1,1.89Q226.51,37.5,216.12,61.36h10l10.5-.15,2.86-.11c1.73,0,2.6.53,2.6,1.6,0,.78-.21,1.23-.62,1.36a23.34,23.34,0,0,1-4.26.25H186.08l.83-1.72q19.2-38.54,26.28-55.45l-19.91.43-2,0c-1.64,0-2.46-.54-2.46-1.63A1.43,1.43,0,0,1,189.9,4.5a14.73,14.73,0,0,1,3-.18Z" transform="translate(2.97 11.11)"/><path class="cls-4" d="M91.22,98.39a43.66,43.66,0,0,1-5.1,5.82l6,8.1H88.76L84.14,106a40.07,40.07,0,0,1-7.08,5.1,15.71,15.71,0,0,1-7.44,2,9.91,9.91,0,0,1-7.26-2.76,10.27,10.27,0,0,1-3.12-7.56,11.79,11.79,0,0,1,2.64-7.56,21.61,21.61,0,0,1,5-4.26l4.26-2.76c-2.76-4.26-4-6.24-4-8.88a7.82,7.82,0,0,1,2.28-5.52A7.24,7.24,0,0,1,75,71.57a7.31,7.31,0,0,1,5.1,2A7.07,7.07,0,0,1,82.28,79c0,1.32-.18,3.66-2.94,6.42a37.35,37.35,0,0,1-4.5,3.48l9.78,13.2a58.83,58.83,0,0,0,4.68-5.34Zm-18.6-8.16-3.78,2.46a19.4,19.4,0,0,0-5.1,4.38A8.53,8.53,0,0,0,62,102.59a8.24,8.24,0,0,0,2.1,5.82,7.35,7.35,0,0,0,5.58,2.28,14.66,14.66,0,0,0,7-2.16,28.58,28.58,0,0,0,5.94-4.62Zm5.16-6.78a5.92,5.92,0,0,0,1.86-4.38,4.73,4.73,0,0,0-4.86-5,4.71,4.71,0,0,0-3.3,1.32,5.68,5.68,0,0,0-1.68,4c0,2.7,2.16,5.22,3.54,7.44A27.33,27.33,0,0,0,77.78,83.45Z" transform="translate(2.97 11.11)"/><path class="cls-4" d="M113.66,90.11v22.2h-2.4V90.11H108.5V87.83h2.76V76.19c0-6.9,3.54-8.34,6.42-8.34a6.66,6.66,0,0,1,2.1.36v2.22a4.66,4.66,0,0,0-1.86-.3c-2.1,0-4.26.9-4.26,6.54V87.83h6.12v2.28Z" transform="translate(2.97 11.11)"/><path class="cls-4" d="M125.06,100.37c0,6.24,4.56,10.32,9.72,10.32a9.34,9.34,0,0,0,8.52-5.58l2,1.2A11.83,11.83,0,0,1,134.6,113c-7.62,0-12.06-5.64-12.06-12.78,0-8.52,5.88-12.9,11.88-12.9,6.6,0,11.58,5.28,11.58,13.08Zm18.42-2.28c-.6-4.86-4.2-8.52-9.06-8.52s-8.52,3.78-9.18,8.52Z" transform="translate(2.97 11.11)"/><path class="cls-4" d="M154,100.37c0,6.24,4.56,10.32,9.71,10.32a9.34,9.34,0,0,0,8.52-5.58l2,1.2A11.81,11.81,0,0,1,163.58,113c-7.62,0-12.06-5.64-12.06-12.78,0-8.52,5.88-12.9,11.88-12.9,6.6,0,11.57,5.28,11.57,13.08Zm18.42-2.28c-.61-4.86-4.21-8.52-9.06-8.52s-8.52,3.78-9.18,8.52Z" transform="translate(2.97 11.11)"/><path class="cls-4" d="M184.46,68.57v43.74h-2.4V68.57Z" transform="translate(2.97 11.11)"/><path class="cls-5" d="M51.69,4.32l-.13,10.42.22,16,.13,10.64q0,10.93-6.24,17.36a22,22,0,0,1-9.05,5.58,41.24,41.24,0,0,1-13,1.8q-11.08,0-17.06-4.44a17.08,17.08,0,0,1-4.39-4.9A10.63,10.63,0,0,1,.45,51.39,1.65,1.65,0,0,1,2.3,49.5c1.17,0,1.89.89,2.15,2.68q.8,5.63,7,8.7a24.11,24.11,0,0,0,10.77,2.46c.56,0,1.46,0,2.72-.13l.05-1.8.09-12,.17-32L25,4.32Z" transform="translate(2.97 11.11)"/><path class="cls-5" d="M89.46.72,124.6,64.31H94.12l-4.24-8H75.16l-13-.05-2.19,0-2.89,5.37a20.67,20.67,0,0,1-1.78,3,1.6,1.6,0,0,1-1.26.58c-1,0-1.51-.44-1.51-1.32a5.86,5.86,0,0,1,.86-2.13q.85-1.56,6-10.26L86,6.65ZM75.79,29.59,68.11,42.51,62,53.15l13.11.17,13.15-.17Z" transform="translate(2.97 11.11)"/><path class="cls-5" d="M182.52,4.32l-1,1.89Q166,37.5,155.61,61.36h10l10.51-.15L179,61.1c1.73,0,2.59.53,2.59,1.6,0,.78-.2,1.23-.61,1.36a23.34,23.34,0,0,1-4.26.25H125.56l.84-1.72q19.2-38.54,26.28-55.45l-19.91.43-2,0c-1.64,0-2.46-.54-2.46-1.63a1.42,1.42,0,0,1,1.06-1.49,14.73,14.73,0,0,1,3-.18Z" transform="translate(2.97 11.11)"/><path class="cls-5" d="M243,4.32l-1,1.89Q226.51,37.5,216.12,61.36h10l10.5-.15,2.86-.11c1.73,0,2.6.53,2.6,1.6,0,.78-.21,1.23-.62,1.36a23.34,23.34,0,0,1-4.26.25H186.08l.83-1.72q19.2-38.54,26.28-55.45l-19.91.43-2,0c-1.64,0-2.46-.54-2.46-1.63A1.43,1.43,0,0,1,189.9,4.5a14.73,14.73,0,0,1,3-.18Z" transform="translate(2.97 11.11)"/><path class="cls-5" d="M91.22,98.39a43.66,43.66,0,0,1-5.1,5.82l6,8.1H88.76L84.14,106a40.07,40.07,0,0,1-7.08,5.1,15.71,15.71,0,0,1-7.44,2,9.91,9.91,0,0,1-7.26-2.76,10.27,10.27,0,0,1-3.12-7.56,11.79,11.79,0,0,1,2.64-7.56,21.61,21.61,0,0,1,5-4.26l4.26-2.76c-2.76-4.26-4-6.24-4-8.88a7.82,7.82,0,0,1,2.28-5.52A7.24,7.24,0,0,1,75,71.57a7.31,7.31,0,0,1,5.1,2A7.07,7.07,0,0,1,82.28,79c0,1.32-.18,3.66-2.94,6.42a37.35,37.35,0,0,1-4.5,3.48l9.78,13.2a58.83,58.83,0,0,0,4.68-5.34Zm-18.6-8.16-3.78,2.46a19.4,19.4,0,0,0-5.1,4.38A8.53,8.53,0,0,0,62,102.59a8.24,8.24,0,0,0,2.1,5.82,7.35,7.35,0,0,0,5.58,2.28,14.66,14.66,0,0,0,7-2.16,28.58,28.58,0,0,0,5.94-4.62Zm5.16-6.78a5.92,5.92,0,0,0,1.86-4.38,4.73,4.73,0,0,0-4.86-5,4.71,4.71,0,0,0-3.3,1.32,5.68,5.68,0,0,0-1.68,4c0,2.7,2.16,5.22,3.54,7.44A27.33,27.33,0,0,0,77.78,83.45Z" transform="translate(2.97 11.11)"/><path class="cls-5" d="M113.66,90.11v22.2h-2.4V90.11H108.5V87.83h2.76V76.19c0-6.9,3.54-8.34,6.42-8.34a6.66,6.66,0,0,1,2.1.36v2.22a4.66,4.66,0,0,0-1.86-.3c-2.1,0-4.26.9-4.26,6.54V87.83h6.12v2.28Z" transform="translate(2.97 11.11)"/><path class="cls-5" d="M125.06,100.37c0,6.24,4.56,10.32,9.72,10.32a9.34,9.34,0,0,0,8.52-5.58l2,1.2A11.83,11.83,0,0,1,134.6,113c-7.62,0-12.06-5.64-12.06-12.78,0-8.52,5.88-12.9,11.88-12.9,6.6,0,11.58,5.28,11.58,13.08Zm18.42-2.28c-.6-4.86-4.2-8.52-9.06-8.52s-8.52,3.78-9.18,8.52Z" transform="translate(2.97 11.11)"/><path class="cls-5" d="M154,100.37c0,6.24,4.56,10.32,9.71,10.32a9.34,9.34,0,0,0,8.52-5.58l2,1.2A11.81,11.81,0,0,1,163.58,113c-7.62,0-12.06-5.64-12.06-12.78,0-8.52,5.88-12.9,11.88-12.9,6.6,0,11.57,5.28,11.57,13.08Zm18.42-2.28c-.61-4.86-4.21-8.52-9.06-8.52s-8.52,3.78-9.18,8.52Z" transform="translate(2.97 11.11)"/><path class="cls-5" d="M184.46,68.57v43.74h-2.4V68.57Z" transform="translate(2.97 11.11)"/></g></svg>